<svg width="313" height="72" viewBox="0 0 313 72" fill="none" xmlns="http://www.w3.org/2000/svg">
<path fill-rule="evenodd" clip-rule="evenodd" d="M286.82 4.21484H255.638V6.30748H286.82L286.821 6.30735L308.081 18.863L308.176 18.8171L308.082 18.8633H308.081V18.8638L308.081 34.9071V52.3451V52.3457H308.082L308.176 52.3919L308.081 52.346L286.821 64.9016L286.82 64.9015H255.638V66.9941H286.82L289.655 66.2967L289.655 66.2969L310.938 53.7291L310.931 53.7255L312.333 52.3457H312.333V52.3451L312.333 36.3019V18.8638V18.8633H312.333L310.931 17.4834L310.938 17.4799L289.655 4.91211L289.655 4.9123L286.82 4.21484H286.82Z" fill="white"/>
<path fill-rule="evenodd" clip-rule="evenodd" d="M25.5137 4.21484H56.6962V6.30748H25.5137H25.5135V6.30741L25.5134 6.30732L4.25265 18.863L4.14432 18.8105L4.25152 18.8633H4.25265V18.8638V34.9071H4.25269V52.3451V52.3457H4.25156L4.14436 52.3985L4.25269 52.346L25.5134 64.9017L25.5136 64.9016V64.9015H25.5137H56.6963V66.9941H25.5137H25.5136L22.6792 66.2967L22.6788 66.2969L1.3959 53.7291L1.40305 53.7256L0.00107193 52.3457H0.000507355V52.3451V36.3019H0.000465393V18.8638V18.8633H0.00102997L1.403 17.4834L1.39585 17.4799L22.6788 4.91211L22.6792 4.91231L25.5135 4.21484H25.5137Z" fill="white"/>
<path fill-rule="evenodd" clip-rule="evenodd" d="M300.691 32.7067V19.6787V19.6783V19.6645H300.667L285.931 10.9639L266.831 0L266.831 0.103962H156.42V19.6645H156.42L156.42 19.6645V0.103962H46.0088L46.0088 8.76188e-06L26.9083 10.9643L12.1728 19.6645H12.1495V19.6783L12.1487 19.6787H12.1495V32.7067H12.1493V51.5331H12.1484L12.1493 51.5336V51.5434H12.1659L26.9111 60.2494L46.0085 71.2119V51.5434H46.0088V71.104H156.42V42.1244L156.42 38.5012H156.42L156.42 42.1244V71.104H266.831V51.5434H266.832V71.2118L285.932 60.2477L300.674 51.5434H300.691V51.5336V51.5331L300.691 32.7067Z" fill="white"/>
<path fill-rule="evenodd" clip-rule="evenodd" d="M291.578 21.5232H291.58L291.578 21.5221V21.5122H291.561L282.46 16.4408L259.858 4.19531V21.5122H259.858V4.21528H156.42L156.42 21.5122L156.419 21.5122V4.21528H52.9817V4.19536L30.3766 16.4424L21.2789 21.5122H21.2609V21.5222L21.2591 21.5232H21.2609V33.044H21.2607V49.6906H21.2588L21.2607 49.6917V49.6997H21.2751L30.3942 54.7814L52.9812 67.0186V49.6997H52.9818V66.9965H156.419H156.42H259.857V49.6997H259.858V67.0185L282.46 54.773L291.564 49.6997H291.578V49.6917L291.58 49.6906H291.578V33.044V21.5232Z" fill="#5B5B5B"/>
<path d="M91.7433 29.2896V25.7399H108.468V29.2896H102.233V46.1035H97.9777V29.2896H91.7433ZM109.557 46.1035V30.8308H113.663V33.4956H113.822C114.101 32.5476 114.568 31.8317 115.224 31.3478C115.88 30.8573 116.636 30.612 117.491 30.612C117.703 30.612 117.932 30.6253 118.177 30.6518C118.423 30.6783 118.638 30.7148 118.824 30.7612V34.5197C118.625 34.46 118.35 34.407 117.998 34.3606C117.647 34.3142 117.325 34.291 117.034 34.291C116.411 34.291 115.854 34.4269 115.363 34.6987C114.879 34.9638 114.495 35.335 114.21 35.8123C113.932 36.2896 113.792 36.8398 113.792 37.4629V46.1035H109.557ZM124.093 51.8308C123.557 51.8308 123.053 51.7877 122.582 51.7015C122.118 51.622 121.734 51.5192 121.429 51.3933L122.383 48.2314C122.88 48.3838 123.328 48.4667 123.726 48.4799C124.13 48.4932 124.478 48.4004 124.77 48.2015C125.068 48.0027 125.31 47.6646 125.495 47.1873L125.744 46.541L120.265 30.8308H124.72L127.882 42.0467H128.041L131.233 30.8308H135.717L129.781 47.7541C129.496 48.5761 129.108 49.292 128.618 49.9018C128.134 50.5183 127.521 50.9922 126.778 51.3237C126.036 51.6618 125.141 51.8308 124.093 51.8308ZM147.955 46.1035H143.341L150.371 25.7399H155.919L162.939 46.1035H158.325L153.225 30.3933H153.065L147.955 46.1035ZM147.666 38.0993H158.564V41.46H147.666V38.0993ZM171.48 52.149C170.108 52.149 168.931 51.96 167.95 51.5822C166.976 51.211 166.2 50.7039 165.624 50.0609C165.047 49.4179 164.672 48.6954 164.5 47.8933L168.418 47.3663C168.537 47.6712 168.726 47.9563 168.984 48.2214C169.243 48.4866 169.584 48.6987 170.009 48.8578C170.439 49.0235 170.963 49.1064 171.58 49.1064C172.501 49.1064 173.26 48.881 173.857 48.4302C174.46 47.9861 174.761 47.2404 174.761 46.193V43.399H174.582C174.397 43.8232 174.118 44.2243 173.747 44.6021C173.376 44.9799 172.899 45.2882 172.315 45.5268C171.732 45.7654 171.036 45.8848 170.227 45.8848C169.081 45.8848 168.037 45.6196 167.095 45.0893C166.161 44.5524 165.415 43.7337 164.858 42.6333C164.308 41.5263 164.033 40.1277 164.033 38.4373C164.033 36.7072 164.314 35.2621 164.878 34.1021C165.441 32.9421 166.19 32.0737 167.125 31.497C168.066 30.9203 169.097 30.6319 170.217 30.6319C171.073 30.6319 171.788 30.7778 172.365 31.0694C172.942 31.3545 173.406 31.7124 173.757 32.1433C174.115 32.5675 174.39 32.9851 174.582 33.3961H174.742V30.8308H178.948V46.2527C178.948 47.5519 178.629 48.639 177.993 49.514C177.357 50.389 176.475 51.0453 175.348 51.4828C174.228 51.9269 172.939 52.149 171.48 52.149ZM171.57 42.7029C172.252 42.7029 172.829 42.5339 173.3 42.1958C173.777 41.8511 174.142 41.3606 174.394 40.7243C174.652 40.0813 174.781 39.3123 174.781 38.4174C174.781 37.5225 174.655 36.747 174.403 36.0907C174.152 35.4279 173.787 34.9141 173.31 34.5495C172.832 34.185 172.252 34.0027 171.57 34.0027C170.874 34.0027 170.287 34.1916 169.81 34.5694C169.332 34.9406 168.971 35.4577 168.726 36.1206C168.481 36.7834 168.358 37.5491 168.358 38.4174C168.358 39.2991 168.481 40.0614 168.726 40.7044C168.978 41.3407 169.339 41.8346 169.81 42.1859C170.287 42.5306 170.874 42.7029 171.57 42.7029ZM186.673 46.3919C185.699 46.3919 184.831 46.2228 184.068 45.8848C183.306 45.5401 182.703 45.033 182.259 44.3635C181.821 43.6873 181.602 42.8455 181.602 41.8379C181.602 40.9894 181.758 40.2768 182.07 39.7001C182.381 39.1234 182.805 38.6594 183.342 38.3081C183.879 37.9567 184.489 37.6916 185.172 37.5126C185.861 37.3336 186.584 37.2077 187.34 37.1348C188.228 37.042 188.944 36.9558 189.487 36.8762C190.031 36.7901 190.425 36.6641 190.671 36.4984C190.916 36.3327 191.038 36.0874 191.038 35.7626V35.7029C191.038 35.0732 190.84 34.586 190.442 34.2413C190.051 33.8966 189.494 33.7243 188.771 33.7243C188.009 33.7243 187.403 33.8933 186.952 34.2314C186.501 34.5628 186.203 34.9804 186.057 35.4842L182.139 35.166C182.338 34.238 182.729 33.4359 183.313 32.7598C183.896 32.077 184.648 31.5533 185.57 31.1887C186.498 30.8175 187.572 30.6319 188.791 30.6319C189.64 30.6319 190.452 30.7314 191.227 30.9302C192.01 31.1291 192.702 31.4373 193.305 31.8549C193.915 32.2725 194.396 32.8095 194.747 33.4657C195.099 34.1154 195.274 34.8942 195.274 35.8024V46.1035H191.257V43.9856H191.138C190.893 44.4629 190.564 44.8838 190.153 45.2484C189.743 45.6064 189.249 45.8881 188.672 46.0936C188.095 46.2924 187.429 46.3919 186.673 46.3919ZM187.886 43.4686C188.51 43.4686 189.06 43.3459 189.537 43.1007C190.014 42.8488 190.389 42.5107 190.661 42.0865C190.932 41.6622 191.068 41.1816 191.068 40.6447V39.024C190.936 39.1101 190.753 39.1897 190.521 39.2626C190.296 39.3289 190.041 39.3919 189.756 39.4515C189.471 39.5046 189.186 39.5543 188.901 39.6007C188.616 39.6404 188.357 39.6769 188.125 39.71C187.628 39.783 187.194 39.899 186.823 40.0581C186.451 40.2172 186.163 40.4326 185.957 40.7044C185.752 40.9695 185.649 41.301 185.649 41.6987C185.649 42.2754 185.858 42.7162 186.276 43.0211C186.7 43.3194 187.237 43.4686 187.886 43.4686ZM198.56 46.1035V30.8308H202.796V46.1035H198.56ZM200.688 28.862C200.059 28.862 199.518 28.6532 199.068 28.2356C198.623 27.8114 198.401 27.3043 198.401 26.7143C198.401 26.131 198.623 25.6305 199.068 25.2129C199.518 24.7886 200.059 24.5765 200.688 24.5765C201.318 24.5765 201.855 24.7886 202.299 25.2129C202.75 25.6305 202.975 26.131 202.975 26.7143C202.975 27.3043 202.75 27.8114 202.299 28.2356C201.855 28.6532 201.318 28.862 200.688 28.862ZM210.425 37.274V46.1035H206.189V30.8308H210.226V33.5254H210.405C210.743 32.6371 211.31 31.9345 212.106 31.4174C212.901 30.8938 213.866 30.6319 214.999 30.6319C216.06 30.6319 216.984 30.8639 217.773 31.3279C218.562 31.792 219.175 32.4548 219.613 33.3166C220.05 34.1717 220.269 35.1925 220.269 36.3791V46.1035H216.033V37.1348C216.04 36.2001 215.801 35.4709 215.317 34.9473C214.833 34.417 214.167 34.1518 213.319 34.1518C212.749 34.1518 212.245 34.2744 211.807 34.5197C211.376 34.765 211.038 35.1229 210.793 35.5936C210.554 36.0576 210.432 36.6177 210.425 37.274Z" fill="white"/>
</svg>
