<svg width="185" height="71" viewBox="0 0 185 71" fill="none" xmlns="http://www.w3.org/2000/svg">
<g clip-path="url(#clip0_277_2118)">
<path fill-rule="evenodd" clip-rule="evenodd" d="M169.943 4.11047H151.539V6.20311H169.943H169.943L182.491 18.7589L182.491 18.7589V34.8024V36.1975V52.241L169.943 64.7968H169.943H151.539V66.8894H169.943H169.943L171.616 66.1919L171.616 66.1919L184.177 53.6241L184.173 53.6209L185 52.241V36.1975V34.8024V18.7589L184.173 17.379L184.177 17.3758L171.616 4.80801L171.616 4.80802L169.943 4.11047H169.943Z" fill="#CDCDCD"/>
<path fill-rule="evenodd" clip-rule="evenodd" d="M15.724 4.11047H34.1274V6.20311H15.724H15.724L3.17619 18.7589L3.1762 18.7589V34.8024V36.1975V52.241L15.724 64.7968H15.724H34.1274V66.8894H15.724H15.724L14.051 66.1919L14.051 66.1919L1.49016 53.6241L1.49405 53.6209L0.666637 52.241V36.1975V34.8024V18.7589L1.49405 17.379L1.49016 17.3758L14.051 4.80801L14.051 4.80802L15.724 4.11047H15.724Z" fill="#CDCDCD"/>
<path fill-rule="evenodd" clip-rule="evenodd" d="M27.82 0H92.9827H158.145V19.5612H158.146V0.29439L177.955 19.5612H178.129V32.602L178.129 51.4388H177.958L158.146 70.7093V51.4388H158.145V71H92.9828L92.9827 54.699L92.9827 71H27.82V51.4388H27.8198V70.7093L8.00698 51.4388H7.83679V32.602H7.83685V19.5612H8.01084L27.8199 0.294401V19.5612H27.82V0Z" fill="#CDCDCD"/>
<path fill-rule="evenodd" clip-rule="evenodd" d="M31.9355 4.11047H92.9827V21.4067H92.9828H92.9828V4.11047H154.03V21.4067L154.03 4.49032L172.458 21.4067H172.751V32.9376V38.0624V49.5933H172.462L154.03 66.5131V49.5933H154.03V66.8896H92.9828H92.9827H31.9357V49.5933H31.9354V66.5131L13.504 49.5933H13.2145V38.0624V32.9376V21.4067H13.5078L31.9355 4.49033V21.4067H31.9355V4.11047Z" fill="#212121"/>
<path d="M51.8253 46V25.6364H58.706C60.2969 25.6364 61.6027 25.9081 62.6236 26.4517C63.6444 26.9886 64.4001 27.7277 64.8906 28.669C65.3812 29.6103 65.6264 30.6809 65.6264 31.8807C65.6264 33.0805 65.3812 34.1444 64.8906 35.0724C64.4001 36.0005 63.6477 36.7296 62.6335 37.2599C61.6193 37.7836 60.3234 38.0455 58.7457 38.0455H53.1776V35.8182H58.6662C59.7533 35.8182 60.6283 35.6591 61.2912 35.3409C61.9607 35.0227 62.4446 34.572 62.7429 33.9886C63.0478 33.3987 63.2003 32.696 63.2003 31.8807C63.2003 31.0653 63.0478 30.3527 62.7429 29.7429C62.438 29.133 61.9508 28.6624 61.2812 28.331C60.6117 27.9929 59.7268 27.8239 58.6264 27.8239H54.2912V46H51.8253ZM61.4105 36.8523L66.4219 46H63.5582L58.6264 36.8523H61.4105ZM75.6566 46.3182C74.185 46.3182 72.9156 45.9934 71.8484 45.3438C70.7878 44.6875 69.9691 43.7727 69.3924 42.5994C68.8223 41.4195 68.5373 40.0473 68.5373 38.483C68.5373 36.9186 68.8223 35.5398 69.3924 34.3466C69.9691 33.1468 70.7712 32.2121 71.7987 31.5426C72.8327 30.8665 74.0392 30.5284 75.418 30.5284C76.2134 30.5284 76.9989 30.661 77.7745 30.9261C78.5501 31.1913 79.256 31.6222 79.8924 32.2188C80.5288 32.8087 81.0359 33.5909 81.4137 34.5653C81.7915 35.5398 81.9805 36.7396 81.9805 38.1648V39.1591H70.2077V37.1307H79.5941C79.5941 36.2689 79.4218 35.5 79.0771 34.8239C78.739 34.1477 78.2551 33.6141 77.6254 33.223C77.0022 32.8319 76.2665 32.6364 75.418 32.6364C74.4833 32.6364 73.6746 32.8684 72.9918 33.3324C72.3157 33.7898 71.7953 34.3864 71.4308 35.1222C71.0662 35.858 70.8839 36.6468 70.8839 37.4886V38.8409C70.8839 39.9943 71.0827 40.9721 71.4805 41.7741C71.8848 42.5696 72.445 43.1761 73.1609 43.5938C73.8768 44.0047 74.7087 44.2102 75.6566 44.2102C76.2731 44.2102 76.8299 44.1241 77.3271 43.9517C77.8308 43.7727 78.265 43.5076 78.6296 43.1562C78.9942 42.7983 79.2759 42.3542 79.4748 41.8239L81.7418 42.4602C81.5032 43.2292 81.1022 43.9053 80.5387 44.4886C79.9753 45.0653 79.2792 45.5161 78.4506 45.8409C77.622 46.1591 76.6907 46.3182 75.6566 46.3182ZM92.1921 30.7273V32.7159H84.2773V30.7273H92.1921ZM86.5842 27.0682H88.9308V41.625C88.9308 42.2879 89.0269 42.785 89.2191 43.1165C89.418 43.4413 89.6699 43.66 89.9748 43.7727C90.2863 43.8788 90.6145 43.9318 90.9592 43.9318C91.2177 43.9318 91.4298 43.9186 91.5955 43.892C91.7612 43.8589 91.8938 43.8324 91.9933 43.8125L92.4705 45.9205C92.3114 45.9801 92.0894 46.0398 91.8043 46.0994C91.5193 46.1657 91.158 46.1989 90.7205 46.1989C90.0576 46.1989 89.408 46.0563 88.7717 45.7713C88.1419 45.4863 87.6183 45.0521 87.2006 44.4688C86.7897 43.8854 86.5842 43.1496 86.5842 42.2614V27.0682ZM105.347 39.7557V30.7273H107.694V46H105.347V43.4148H105.188C104.83 44.1903 104.273 44.8499 103.517 45.3935C102.762 45.9304 101.807 46.1989 100.654 46.1989C99.6992 46.1989 98.8507 45.9901 98.1083 45.5724C97.3659 45.1482 96.7826 44.5118 96.3583 43.6634C95.9341 42.8082 95.7219 41.7311 95.7219 40.4318V30.7273H98.0685V40.2727C98.0685 41.3864 98.3801 42.2746 99.0032 42.9375C99.6329 43.6004 100.435 43.9318 101.409 43.9318C101.993 43.9318 102.586 43.7827 103.189 43.4844C103.799 43.1861 104.31 42.7287 104.721 42.1122C105.138 41.4957 105.347 40.7102 105.347 39.7557ZM111.991 46V30.7273H114.259V33.0341H114.418C114.696 32.2784 115.2 31.6652 115.929 31.1946C116.658 30.724 117.48 30.4886 118.395 30.4886C118.567 30.4886 118.783 30.4919 119.041 30.4986C119.3 30.5052 119.495 30.5152 119.628 30.5284V32.9148C119.548 32.8949 119.366 32.8651 119.081 32.8253C118.803 32.7789 118.508 32.7557 118.196 32.7557C117.454 32.7557 116.791 32.9115 116.207 33.223C115.631 33.5279 115.173 33.9522 114.835 34.4957C114.504 35.0327 114.338 35.6458 114.338 36.3352V46H111.991ZM124.756 36.8125V46H122.409V30.7273H124.676V33.1136H124.875C125.233 32.3381 125.777 31.715 126.506 31.2443C127.235 30.767 128.176 30.5284 129.33 30.5284C130.364 30.5284 131.269 30.7405 132.044 31.1648C132.82 31.5824 133.423 32.2188 133.854 33.0739C134.285 33.9223 134.5 34.9962 134.5 36.2955V46H132.154V36.4545C132.154 35.2547 131.842 34.3201 131.219 33.6506C130.596 32.9744 129.741 32.6364 128.654 32.6364C127.905 32.6364 127.235 32.7988 126.645 33.1236C126.062 33.4484 125.601 33.9223 125.263 34.5455C124.925 35.1686 124.756 35.9242 124.756 36.8125Z" fill="#CDCDCD"/>
</g>
<defs>
<clipPath id="clip0_277_2118">
<rect width="185" height="71" fill="white"/>
</clipPath>
</defs>
</svg>
