<svg width="140" height="59" viewBox="0 0 140 59" fill="none" xmlns="http://www.w3.org/2000/svg">
<g clip-path="url(#clip0_410_19710)">
<path fill-rule="evenodd" clip-rule="evenodd" d="M19.4594 0H69.9828H120.506V16.2551H120.506V0.244634L135.865 16.2551H136V27.0918L136 42.7449H135.868L120.506 58.7585V42.7449H120.506V59H69.9828L69.9828 45.4541L69.9828 59H19.4594V42.7449H19.4593V58.7584L4.09753 42.7449H3.96558V27.0918H3.96562V16.2551H4.10052L19.4593 0.244643V16.2551H19.4594V0Z" fill="#CDCDCD"/>
<path fill-rule="evenodd" clip-rule="evenodd" d="M22.6503 3.41571H69.9827V17.7886H69.9828H69.9828V3.41571H117.315V17.7886L117.315 3.73135L131.603 17.7886H131.83V27.3706V31.6292V41.2112H131.606L117.315 55.2713V41.2112H117.315V55.5841H69.9828H69.9827H22.6504V41.2112H22.6502V55.2713L8.35955 41.2112H8.13507V31.6292V27.3706V17.7886H8.36249L22.6503 3.73136V17.7886H22.6503V3.41571Z" fill="#212121"/>
<path d="M57.3192 24.9091C57.217 24.0455 56.8022 23.375 56.0749 22.8977C55.3477 22.4205 54.4556 22.1818 53.3988 22.1818C52.6261 22.1818 51.9499 22.3068 51.3704 22.5568C50.7965 22.8068 50.3477 23.1506 50.0238 23.5881C49.7056 24.0256 49.5465 24.5227 49.5465 25.0795C49.5465 25.5455 49.6573 25.946 49.8789 26.2812C50.1062 26.6108 50.396 26.8864 50.7482 27.108C51.1005 27.3239 51.4698 27.5028 51.8562 27.6449C52.2425 27.7812 52.5977 27.892 52.9215 27.9773L54.6942 28.4545C55.1488 28.5739 55.6545 28.7386 56.2113 28.9489C56.7738 29.1591 57.3107 29.446 57.8221 29.8097C58.3391 30.1676 58.7653 30.6278 59.1005 31.1903C59.4357 31.7528 59.6033 32.4432 59.6033 33.2614C59.6033 34.2045 59.3562 35.0568 58.8619 35.8182C58.3732 36.5795 57.6573 37.1847 56.7141 37.6335C55.7766 38.0824 54.6374 38.3068 53.2965 38.3068C52.0465 38.3068 50.9641 38.1051 50.0494 37.7017C49.1403 37.2983 48.4244 36.7358 47.9016 36.0142C47.3846 35.2926 47.092 34.4545 47.0238 33.5H49.2056C49.2624 34.1591 49.484 34.7045 49.8704 35.1364C50.2624 35.5625 50.7567 35.8807 51.3533 36.0909C51.9556 36.2955 52.6033 36.3977 53.2965 36.3977C54.1033 36.3977 54.8278 36.267 55.4698 36.0057C56.1119 35.7386 56.6204 35.3693 56.9954 34.8977C57.3704 34.4205 57.5579 33.8636 57.5579 33.2273C57.5579 32.6477 57.396 32.1761 57.0721 31.8125C56.7482 31.4489 56.3221 31.1534 55.7937 30.9261C55.2653 30.6989 54.6942 30.5 54.0806 30.3295L51.9329 29.7159C50.5692 29.3239 49.4897 28.7642 48.6942 28.0369C47.8988 27.3097 47.5011 26.358 47.5011 25.1818C47.5011 24.2045 47.7653 23.3523 48.2937 22.625C48.8278 21.892 49.5437 21.3239 50.4414 20.9205C51.3448 20.5114 52.3533 20.3068 53.467 20.3068C54.592 20.3068 55.592 20.5085 56.467 20.9119C57.342 21.3097 58.0352 21.8551 58.5465 22.5483C59.0636 23.2415 59.3363 24.0284 59.3647 24.9091H57.3192ZM64.6808 33.2273L64.6467 30.7386H65.0558L70.783 24.9091H73.2717L67.1694 31.0795H66.9989L64.6808 33.2273ZM62.8058 38V20.5455H64.8171V38H62.8058ZM71.1239 38L66.0103 31.5227L67.4421 30.125L73.6808 38H71.1239ZM75.8604 38V24.9091H77.8718V38H75.8604ZM76.8832 22.7273C76.4911 22.7273 76.1531 22.5938 75.869 22.3267C75.5906 22.0597 75.4513 21.7386 75.4513 21.3636C75.4513 20.9886 75.5906 20.6676 75.869 20.4006C76.1531 20.1335 76.4911 20 76.8832 20C77.2752 20 77.6104 20.1335 77.8888 20.4006C78.1729 20.6676 78.315 20.9886 78.315 21.3636C78.315 21.7386 78.1729 22.0597 77.8888 22.3267C77.6104 22.5938 77.2752 22.7273 76.8832 22.7273ZM81.5558 42.9091V24.9091H83.4989V26.9886H83.7376C83.8853 26.7614 84.0898 26.4716 84.3512 26.1193C84.6183 25.7614 84.9989 25.4432 85.4933 25.1648C85.9933 24.8807 86.6694 24.7386 87.5217 24.7386C88.6239 24.7386 89.5955 25.0142 90.4364 25.5653C91.2773 26.1165 91.9336 26.8977 92.4052 27.9091C92.8768 28.9205 93.1126 30.1136 93.1126 31.4886C93.1126 32.875 92.8768 34.0767 92.4052 35.0938C91.9336 36.1051 91.2802 36.8892 90.445 37.446C89.6097 37.9972 88.6467 38.2727 87.5558 38.2727C86.7148 38.2727 86.0415 38.1335 85.5359 37.8551C85.0302 37.571 84.641 37.25 84.3683 36.892C84.0955 36.5284 83.8853 36.2273 83.7376 35.9886H83.5671V42.9091H81.5558ZM83.533 31.4545C83.533 32.4432 83.6779 33.3153 83.9677 34.071C84.2575 34.821 84.6808 35.4091 85.2376 35.8352C85.7944 36.2557 86.4762 36.4659 87.283 36.4659C88.1239 36.4659 88.8256 36.2443 89.3881 35.8011C89.9563 35.3523 90.3825 34.75 90.6665 33.9943C90.9563 33.233 91.1012 32.3864 91.1012 31.4545C91.1012 30.5341 90.9592 29.7045 90.6751 28.9659C90.3967 28.2216 89.9734 27.6335 89.4052 27.2017C88.8427 26.7642 88.1353 26.5455 87.283 26.5455C86.4648 26.5455 85.7773 26.7528 85.2205 27.1676C84.6637 27.5767 84.2433 28.1506 83.9592 28.8892C83.6751 29.6222 83.533 30.4773 83.533 31.4545Z" fill="#CDCDCD"/>
</g>
<defs>
<clipPath id="clip0_410_19710">
<rect width="140" height="59" fill="white"/>
</clipPath>
</defs>
</svg>
