<svg width="285" height="119" viewBox="0 0 285 119" fill="none" xmlns="http://www.w3.org/2000/svg">
<path fill-rule="evenodd" clip-rule="evenodd" d="M40.3086 10.1518H141.621V13.2646H41.7556L13.9339 33.5961L11.8822 31.4653L40.3086 10.1519L40.3086 10.1519V10.1518ZM242.975 10.1518H141.663V13.2646H241.528L269.35 33.5961L271.402 31.4653L242.975 10.1518Z" fill="#CDCDCD"/>
<path fill-rule="evenodd" clip-rule="evenodd" d="M40.3086 108.952H141.621V105.84H41.7556L13.9339 85.5083L11.8822 87.639L40.3086 108.952L40.3086 108.952V108.952ZM242.975 108.952H141.663V105.84H241.528L269.35 85.5083L271.402 87.639L242.975 108.952Z" fill="#CDCDCD"/>
<path fill-rule="evenodd" clip-rule="evenodd" d="M174.847 21.0859L142.5 0.104301L142.5 21.0859V59.5521V98.0183H269.264L285 83.1564L269.264 83.1564H285V59.5521V35.9478L269.264 21.086L174.847 21.0859ZM142.5 0.104311L142.5 0.10438V21.0859L142.5 59.5521V98.0183H15.7362V83.1564H0V59.5521V59.5521V35.9478L15.7362 21.0859L15.7362 21.0859L110.153 21.0859L142.5 0.104311ZM110.153 98.0184L142.5 119L142.5 119V98.0184H110.153ZM15.7362 83.1564L15.7362 98.0184L5.87055e-06 83.1564L15.7362 83.1564ZM174.847 98.0184L142.5 119L142.5 98.0184H174.847Z" fill="#CDCDCD"/>
<path fill-rule="evenodd" clip-rule="evenodd" d="M113.991 26.0604L142.5 7.15713L171.009 26.0604L267.19 26.0604L279.816 38.6198L267.19 38.6198L279.816 38.6199V59.5522L279.816 80.4845L267.19 93.0439L142.5 93.0439V59.5522L142.5 26.0604L142.5 59.5522L142.5 93.0439H17.8107V80.4845H5.18391L5.1839 59.5522V38.6199H17.8107V26.0604L113.991 26.0604ZM17.8106 26.0604L5.18384 38.6198L17.8106 38.6198L17.8106 26.0604ZM17.8106 80.4845V93.0439L5.18385 80.4845L17.8106 80.4845ZM113.991 93.044L142.5 111.947L171.009 93.044L142.5 93.044H113.991Z" fill="#191919"/>
<path d="M107.657 55H105.388C105.218 54.1548 104.913 53.3741 104.47 52.6577C104.035 51.9332 103.488 51.3014 102.828 50.7621C102.168 50.2228 101.419 49.8042 100.582 49.5064C99.745 49.2086 98.8395 49.0597 97.8655 49.0597C96.3039 49.0597 94.8792 49.4661 93.5914 50.2791C92.3115 51.0921 91.2852 52.2874 90.5125 53.8651C89.7478 55.4347 89.3655 57.3584 89.3655 59.6364C89.3655 61.9304 89.7478 63.8622 90.5125 65.4318C91.2852 67.0014 92.3115 68.1927 93.5914 69.0057C94.8792 69.8106 96.3039 70.2131 97.8655 70.2131C98.8395 70.2131 99.745 70.0642 100.582 69.7663C101.419 69.4685 102.168 69.054 102.828 68.5227C103.488 67.9834 104.035 67.3516 104.47 66.6271C104.913 65.9027 105.218 65.1179 105.388 64.2727H107.657C107.456 65.4077 107.078 66.4661 106.522 67.4482C105.975 68.4221 105.275 69.2753 104.422 70.0078C103.576 70.7403 102.602 71.3118 101.5 71.7223C100.397 72.1328 99.1856 72.3381 97.8655 72.3381C95.7888 72.3381 93.9455 71.8189 92.3357 70.7805C90.7258 69.7341 89.4621 68.2611 88.5445 66.3615C87.6349 64.4619 87.1801 62.2202 87.1801 59.6364C87.1801 57.0526 87.6349 54.8108 88.5445 52.9112C89.4621 51.0116 90.7258 49.5426 92.3357 48.5043C93.9455 47.4579 95.7888 46.9347 97.8655 46.9347C99.1856 46.9347 100.397 47.1399 101.5 47.5504C102.602 47.9529 103.576 48.5244 104.422 49.2649C105.275 49.9974 105.975 50.8506 106.522 51.8246C107.078 52.7985 107.456 53.857 107.657 55ZM112.514 72V53.4545H114.603V56.304H114.76C115.13 55.3703 115.774 54.6177 116.692 54.0462C117.617 53.4666 118.664 53.1768 119.831 53.1768C120.008 53.1768 120.205 53.1809 120.422 53.1889C120.64 53.197 120.821 53.205 120.966 53.2131V55.3984C120.869 55.3823 120.7 55.3582 120.459 55.326C120.217 55.2938 119.956 55.2777 119.674 55.2777C118.708 55.2777 117.847 55.483 117.09 55.8935C116.342 56.2959 115.75 56.8553 115.315 57.5717C114.881 58.2881 114.663 59.1051 114.663 60.0227V72H112.514ZM131.567 72.3864C129.836 72.3864 128.339 71.9839 127.075 71.179C125.811 70.366 124.833 69.2431 124.141 67.8104C123.457 66.3696 123.115 64.7114 123.115 62.8359C123.115 60.9685 123.457 59.3104 124.141 57.8615C124.833 56.4046 125.787 55.2656 127.003 54.4446C128.226 53.6155 129.639 53.201 131.241 53.201C132.247 53.201 133.217 53.3861 134.15 53.7564C135.084 54.1186 135.921 54.678 136.662 55.4347C137.41 56.1832 138.002 57.129 138.437 58.272C138.871 59.407 139.089 60.7512 139.089 62.3047V63.3672H124.6V61.4716H136.891C136.891 60.2803 136.65 59.2098 136.167 58.2599C135.692 57.3021 135.028 56.5455 134.175 55.9901C133.329 55.4347 132.351 55.157 131.241 55.157C130.065 55.157 129.031 55.4709 128.138 56.0987C127.244 56.7266 126.544 57.5556 126.037 58.5859C125.538 59.6162 125.284 60.7431 125.276 61.9666V63.1016C125.276 64.5746 125.53 65.8625 126.037 66.9652C126.552 68.0599 127.28 68.9091 128.222 69.5128C129.164 70.1165 130.279 70.4183 131.567 70.4183C132.444 70.4183 133.213 70.2815 133.873 70.0078C134.541 69.7341 135.1 69.3679 135.551 68.9091C136.01 68.4422 136.356 67.9311 136.589 67.3757L138.63 68.0398C138.348 68.8205 137.885 69.541 137.241 70.201C136.605 70.861 135.809 71.3923 134.851 71.7947C133.901 72.1892 132.806 72.3864 131.567 72.3864ZM150.502 72.3864C148.98 72.3864 147.648 71.9839 146.505 71.179C145.362 70.3741 144.469 69.2512 143.825 67.8104C143.189 66.3696 142.871 64.6913 142.871 62.7756C142.871 60.8679 143.189 59.1977 143.825 57.7649C144.469 56.3241 145.366 55.2053 146.517 54.4084C147.668 53.6035 149.008 53.201 150.538 53.201C151.665 53.201 152.602 53.4022 153.351 53.8047C154.1 54.1991 154.699 54.6901 155.15 55.2777C155.601 55.8653 155.951 56.4368 156.2 56.9922H156.394V47.2727H158.555V72H156.454V68.5589H156.2C155.951 69.1224 155.597 69.7019 155.138 70.2976C154.679 70.8852 154.071 71.3802 153.315 71.7827C152.566 72.1851 151.628 72.3864 150.502 72.3864ZM150.755 70.4183C151.954 70.4183 152.977 70.0923 153.822 69.4403C154.667 68.7803 155.311 67.8748 155.754 66.7237C156.204 65.5646 156.43 64.2365 156.43 62.7393C156.43 61.2583 156.208 59.9503 155.766 58.8153C155.323 57.6723 154.679 56.7789 153.834 56.1349C152.989 55.483 151.962 55.157 150.755 55.157C149.515 55.157 148.469 55.495 147.616 56.1712C146.771 56.8393 146.127 57.7448 145.684 58.8878C145.249 60.0308 145.032 61.3146 145.032 62.7393C145.032 64.1802 145.253 65.4801 145.696 66.6392C146.139 67.7983 146.783 68.7199 147.628 69.4041C148.481 70.0803 149.524 70.4183 150.755 70.4183ZM164.7 72V53.4545H166.862V72H164.7ZM165.799 50.267C165.356 50.267 164.978 50.1181 164.664 49.8203C164.35 49.5144 164.193 49.1482 164.193 48.7216C164.193 48.295 164.35 47.9328 164.664 47.6349C164.978 47.3291 165.356 47.1761 165.799 47.1761C166.242 47.1761 166.62 47.3291 166.934 47.6349C167.248 47.9328 167.405 48.295 167.405 48.7216C167.405 49.1482 167.248 49.5144 166.934 49.8203C166.62 50.1181 166.242 50.267 165.799 50.267ZM179.85 53.4545V55.326H171V53.4545H179.85ZM173.765 49.0114H175.926V67.1584C175.926 67.9311 176.059 68.5388 176.324 68.9815C176.59 69.4162 176.936 69.7261 177.363 69.9112C177.789 70.0883 178.244 70.1768 178.727 70.1768C179.009 70.1768 179.25 70.1607 179.452 70.1286C179.653 70.0883 179.83 70.0481 179.983 70.0078L180.442 71.9517C180.232 72.0322 179.975 72.1046 179.669 72.169C179.363 72.2415 178.985 72.2777 178.534 72.2777C177.745 72.2777 176.985 72.1046 176.252 71.7585C175.528 71.4124 174.932 70.8973 174.465 70.2131C173.998 69.5289 173.765 68.6797 173.765 67.6655V49.0114ZM196.859 57.5234L194.891 58.0788C194.698 57.5234 194.424 57.0204 194.07 56.5696C193.716 56.1188 193.253 55.7607 192.682 55.495C192.118 55.2294 191.418 55.0966 190.581 55.0966C189.325 55.0966 188.295 55.3944 187.49 55.9901C186.685 56.5857 186.282 57.3544 186.282 58.2962C186.282 59.093 186.556 59.741 187.103 60.2401C187.659 60.7311 188.512 61.1214 189.663 61.4112L192.464 62.0994C194.018 62.4777 195.181 63.0774 195.954 63.8984C196.734 64.7195 197.125 65.7498 197.125 66.9893C197.125 68.0357 196.835 68.9654 196.255 69.7784C195.676 70.5914 194.867 71.2313 193.829 71.6982C192.798 72.157 191.603 72.3864 190.243 72.3864C188.432 72.3864 186.938 71.9799 185.763 71.1669C184.588 70.3459 183.835 69.1626 183.505 67.6172L185.57 67.1101C185.836 68.2128 186.355 69.0459 187.128 69.6094C187.908 70.1728 188.935 70.4545 190.206 70.4545C191.631 70.4545 192.77 70.1366 193.623 69.5007C194.477 68.8568 194.903 68.0518 194.903 67.0859C194.903 66.3374 194.654 65.7095 194.155 65.2024C193.656 64.6873 192.899 64.3089 191.885 64.0675L188.854 63.343C187.244 62.9567 186.053 62.3449 185.28 61.5078C184.508 60.6707 184.121 59.6323 184.121 58.3928C184.121 57.3705 184.399 56.473 184.954 55.7003C185.51 54.9195 186.274 54.3078 187.248 53.8651C188.222 53.4223 189.333 53.201 190.581 53.201C192.279 53.201 193.635 53.5874 194.65 54.3601C195.672 55.1248 196.408 56.1792 196.859 57.5234Z" fill="#C6C6C6"/>
</svg>
