<svg width="285" height="119" viewBox="0 0 285 119" fill="none" xmlns="http://www.w3.org/2000/svg">
<path fill-rule="evenodd" clip-rule="evenodd" d="M40.3086 10.1518H141.621V13.2646H41.7556L13.9339 33.5961L11.8822 31.4653L40.3086 10.1519L40.3086 10.1519V10.1518ZM242.975 10.1518H141.663V13.2646H241.528L269.35 33.5961L271.402 31.4653L242.975 10.1518Z" fill="white"/>
<path fill-rule="evenodd" clip-rule="evenodd" d="M40.3086 108.952H141.621V105.84H41.7556L13.9339 85.5083L11.8822 87.639L40.3086 108.952L40.3086 108.952V108.952ZM242.975 108.952H141.663V105.84H241.528L269.35 85.5083L271.402 87.639L242.975 108.952Z" fill="white"/>
<path fill-rule="evenodd" clip-rule="evenodd" d="M174.847 21.0859L142.5 0.104301L142.5 21.0859V59.5521V98.0183H269.264L285 83.1564L269.264 83.1564H285V59.5521V35.9478L269.264 21.086L174.847 21.0859ZM142.5 0.104311L142.5 0.10438V21.0859L142.5 59.5521V98.0183H15.7362V83.1564H0V59.5521V59.5521V35.9478L15.7362 21.0859L15.7362 21.0859L110.153 21.0859L142.5 0.104311ZM110.153 98.0184L142.5 119L142.5 119V98.0184H110.153ZM15.7362 83.1564L15.7362 98.0184L5.87055e-06 83.1564L15.7362 83.1564ZM174.847 98.0184L142.5 119L142.5 98.0184H174.847Z" fill="white"/>
<path fill-rule="evenodd" clip-rule="evenodd" d="M113.991 26.0604L142.5 7.15713L171.009 26.0604L267.19 26.0604L279.816 38.6198L267.19 38.6198L279.816 38.6199V59.5522L279.816 80.4845L267.19 93.0439L142.5 93.0439V59.5522L142.5 26.0604L142.5 59.5522L142.5 93.0439H17.8107V80.4845H5.18391L5.1839 59.5522V38.6199H17.8107V26.0604L113.991 26.0604ZM17.8106 26.0604L5.18384 38.6198L17.8106 38.6198L17.8106 26.0604ZM17.8106 80.4845V93.0439L5.18385 80.4845L17.8106 80.4845ZM113.991 93.044L142.5 111.947L171.009 93.044L142.5 93.044H113.991Z" fill="#484848"/>
<path d="M115.926 54.3842C115.83 53.4103 115.415 52.6536 114.683 52.1143C113.95 51.575 112.956 51.3054 111.701 51.3054C110.847 51.3054 110.127 51.4261 109.539 51.6676C108.952 51.901 108.501 52.227 108.187 52.6456C107.881 53.0642 107.728 53.5391 107.728 54.0703C107.712 54.513 107.805 54.8994 108.006 55.2294C108.215 55.5594 108.501 55.8452 108.863 56.0866C109.225 56.3201 109.644 56.5253 110.119 56.7024C110.594 56.8714 111.101 57.0163 111.64 57.1371L113.862 57.6683C114.94 57.9098 115.931 58.2318 116.832 58.6342C117.734 59.0367 118.514 59.5317 119.174 60.1193C119.834 60.7069 120.346 61.3991 120.708 62.196C121.078 62.9929 121.267 63.9065 121.275 64.9368C121.267 66.45 120.881 67.7621 120.116 68.8729C119.359 69.9756 118.265 70.8329 116.832 71.4446C115.407 72.0483 113.689 72.3501 111.676 72.3501C109.68 72.3501 107.942 72.0443 106.461 71.4325C104.988 70.8208 103.837 69.9152 103.007 68.7159C102.186 67.5085 101.756 66.0154 101.716 64.2365H106.775C106.831 65.0656 107.068 65.7578 107.487 66.3132C107.913 66.8606 108.481 67.2751 109.189 67.5568C109.906 67.8305 110.715 67.9673 111.616 67.9673C112.502 67.9673 113.27 67.8385 113.922 67.581C114.582 67.3234 115.093 66.9652 115.456 66.5064C115.818 66.0476 115.999 65.5204 115.999 64.9247C115.999 64.3693 115.834 63.9025 115.504 63.5241C115.182 63.1458 114.707 62.8239 114.079 62.5582C113.459 62.2926 112.699 62.0511 111.797 61.8338L109.105 61.1577C107.02 60.6506 105.374 59.8577 104.167 58.7791C102.959 57.7005 102.359 56.2476 102.368 54.4205C102.359 52.9233 102.758 51.6153 103.563 50.4964C104.376 49.3776 105.491 48.5043 106.907 47.8764C108.324 47.2486 109.934 46.9347 111.737 46.9347C113.572 46.9347 115.174 47.2486 116.542 47.8764C117.919 48.5043 118.989 49.3776 119.754 50.4964C120.519 51.6153 120.913 52.9112 120.937 54.3842H115.926ZM134.559 53.4545V57.3182H123.391V53.4545H134.559ZM125.927 49.0114H131.07V66.3011C131.07 66.776 131.143 67.1463 131.287 67.4119C131.432 67.6695 131.634 67.8506 131.891 67.9553C132.157 68.0599 132.463 68.1122 132.809 68.1122C133.05 68.1122 133.292 68.0921 133.533 68.0518C133.775 68.0036 133.96 67.9673 134.089 67.9432L134.898 71.7706C134.64 71.8511 134.278 71.9437 133.811 72.0483C133.344 72.161 132.777 72.2294 132.108 72.2536C130.869 72.3018 129.782 72.1368 128.849 71.7585C127.923 71.3802 127.202 70.7926 126.687 69.9957C126.172 69.1989 125.919 68.1927 125.927 66.9773V49.0114ZM143.198 72.3501C142.015 72.3501 140.961 72.1449 140.035 71.7344C139.109 71.3158 138.377 70.7 137.838 69.8871C137.306 69.0661 137.041 68.0438 137.041 66.8203C137.041 65.79 137.23 64.9247 137.608 64.2244C137.986 63.5241 138.502 62.9607 139.154 62.5341C139.806 62.1075 140.546 61.7855 141.375 61.5682C142.212 61.3509 143.09 61.1979 144.007 61.1094C145.086 60.9967 145.955 60.892 146.615 60.7955C147.275 60.6908 147.754 60.5379 148.052 60.3366C148.35 60.1354 148.499 59.8376 148.499 59.4432V59.3707C148.499 58.6061 148.257 58.0144 147.774 57.5959C147.299 57.1773 146.623 56.968 145.746 56.968C144.82 56.968 144.084 57.1733 143.536 57.5838C142.989 57.9863 142.627 58.4934 142.45 59.1051L137.693 58.7188C137.934 57.5919 138.409 56.6179 139.117 55.7969C139.826 54.9678 140.739 54.3319 141.858 53.8892C142.985 53.4384 144.289 53.2131 145.77 53.2131C146.8 53.2131 147.786 53.3338 148.728 53.5753C149.678 53.8168 150.519 54.1911 151.252 54.6982C151.992 55.2053 152.576 55.8572 153.002 56.6541C153.429 57.4429 153.642 58.3887 153.642 59.4915V72H148.764V69.4283H148.619C148.322 70.0078 147.923 70.5189 147.424 70.9616C146.925 71.3963 146.325 71.7384 145.625 71.9879C144.925 72.2294 144.116 72.3501 143.198 72.3501ZM144.671 68.8004C145.428 68.8004 146.096 68.6515 146.676 68.3537C147.255 68.0478 147.71 67.6373 148.04 67.1222C148.37 66.607 148.535 66.0234 148.535 65.3714V63.4034C148.374 63.508 148.153 63.6046 147.871 63.6932C147.597 63.7737 147.287 63.8501 146.941 63.9226C146.595 63.987 146.249 64.0473 145.903 64.1037C145.557 64.152 145.243 64.1963 144.961 64.2365C144.357 64.325 143.83 64.4659 143.379 64.6591C142.929 64.8523 142.579 65.1139 142.329 65.4439C142.079 65.7659 141.955 66.1683 141.955 66.6513C141.955 67.3516 142.208 67.8868 142.715 68.2571C143.231 68.6193 143.883 68.8004 144.671 68.8004ZM157.633 72V53.4545H162.619V56.6903H162.812C163.15 55.5393 163.718 54.67 164.515 54.0824C165.312 53.4867 166.229 53.1889 167.268 53.1889C167.525 53.1889 167.803 53.205 168.101 53.2372C168.398 53.2694 168.66 53.3137 168.885 53.37V57.9339C168.644 57.8615 168.31 57.7971 167.883 57.7408C167.457 57.6844 167.066 57.6562 166.712 57.6562C165.956 57.6562 165.279 57.8213 164.684 58.1513C164.096 58.4732 163.629 58.924 163.283 59.5036C162.945 60.0831 162.776 60.7512 162.776 61.5078V72H157.633ZM182.339 53.4545V57.3182H171.17V53.4545H182.339ZM173.706 49.0114H178.849V66.3011C178.849 66.776 178.922 67.1463 179.067 67.4119C179.212 67.6695 179.413 67.8506 179.67 67.9553C179.936 68.0599 180.242 68.1122 180.588 68.1122C180.83 68.1122 181.071 68.0921 181.312 68.0518C181.554 68.0036 181.739 67.9673 181.868 67.9432L182.677 71.7706C182.419 71.8511 182.057 71.9437 181.59 72.0483C181.123 72.161 180.556 72.2294 179.888 72.2536C178.648 72.3018 177.562 72.1368 176.628 71.7585C175.702 71.3802 174.982 70.7926 174.467 69.9957C173.951 69.1989 173.698 68.1927 173.706 66.9773V49.0114Z" fill="white"/>
</svg>
